<svg width="150" height="60" viewBox="0 0 150 60" fill="none" xmlns="http://www.w3.org/2000/svg">
<rect width="150" height="60" rx="12" fill="#0F5E74"/>
<path d="M32.52 37.824H27.66V27.204H32.52V37.824ZM22.944 16.296H27.444C26.472 21.768 24.816 26.808 22.296 30.192C22.728 30.912 23.34 32.424 23.52 33.036C24.204 32.172 24.816 31.2 25.392 30.156V43.116H27.66V40.236H34.896V24.828H27.732C28.632 22.164 29.388 19.248 29.964 16.296H35.544V13.848H22.944V16.296ZM42.996 26.7V16.368H48.828V26.7H42.996ZM55.416 26.7H51.384V16.368H54.732V13.848H37.488V16.368H40.44V26.7H36.48V29.256H40.404C40.296 34.08 39.504 39.516 35.832 43.368C36.444 43.692 37.416 44.448 37.848 44.916C41.916 40.704 42.852 34.728 42.96 29.256H48.828V44.736H51.384V29.256H55.416V26.7ZM85.584 13.236C84.54 16.116 82.596 20.04 81.048 22.452L83.28 23.352C84.864 21.048 86.808 17.34 88.284 14.244L85.584 13.236ZM68.844 22.452C68.196 20.04 66.324 16.368 64.488 13.632L62.076 14.532C63.876 17.34 65.676 21.12 66.324 23.46L68.844 22.452ZM82.452 42.18C81.084 42.18 80.796 41.928 80.796 40.74V28.068H91.02V25.512H76.224V11.868H73.56V25.512H59.088V28.068H68.664C68.088 34.872 66.756 39.948 58.368 42.468C58.944 42.972 59.736 44.088 60.024 44.736C68.988 41.784 70.788 35.916 71.472 28.068H78.096V40.776C78.096 43.8 78.996 44.664 82.164 44.664H87.348C90.372 44.664 91.092 43.116 91.416 37.32C90.696 37.104 89.544 36.636 88.968 36.132C88.788 41.28 88.536 42.18 87.132 42.18H82.452ZM98.184 20.004H123.816V25.476H126.408V17.628H119.712C120.864 16.44 122.196 14.748 123.348 13.128L120.612 12.156C119.82 13.596 118.416 15.684 117.336 17.016L118.884 17.628H112.26V11.904H109.632V17.628H103.332L104.664 17.016C104.052 15.684 102.648 13.74 101.352 12.3L99.012 13.236C100.092 14.568 101.244 16.332 101.928 17.628H95.736V25.476H98.184V20.004ZM103.656 25.008H118.38V29.004H103.656V25.008ZM112.26 41.388V37.068H123.924V34.728H112.26V31.164H121.008V22.884H101.136V31.164H109.632V34.728H98.58V37.068H109.632V41.388H95.448V43.764H126.66V41.388H112.26Z" fill="white"/>
</svg>
